# File created by Blade
# Date/Time:  Thu Sep 25 14:26:36 2014
# Frame Rate: 120.000 fps
#------------------------------------------------------
:FULLY-SPECIFIED
:DEGREES
1299
root 1.546984 26.583870 -0.249970 -16.387715 80.080190 72.466364
Spine -50.552478 4.725888 1.842796
Head -108.662067 2.188525 2.360668
LeftShoulder -33.008528 2.763752 39.561749
LeftArm 135.888051 -61.790669 -130.354751
LeftForeArm 41.081368 -0.000000 54.372594
LeftHand -35.140747 0.000000 120.043270
LeftHandThumb1 -26.253704 0.000000 33.147579
RightShoulder -29.642203 29.892622 -58.449587
RightArm 204.222772 108.268178 210.862720
RightForeArm -52.373908 0.000000 78.460654
RightHand -15.885701 0.000000 -65.340457
RightHandThumb1 -24.326973 -0.000000 -32.862282
LeftUpLeg 36.142312 6.962305 25.119650
LeftLeg 58.887682 -0.000000 -0.000000
LeftFoot -2.749437 8.361513 -38.022630
LeftToeBase -2.454569 -0.000000 0.000000
RightUpLeg 36.537764 2.522898 -24.546579
RightLeg 84.614662 -0.000000 -0.000000
RightFoot -26.417526 -18.589396 7.998920
RightToeBase -3.741430 -0.000000 0.000000
1300
root 1.449952 26.605685 -0.251422 -16.170159 79.983765 72.654268
Spine -50.703578 5.161570 1.974797
Head -108.684660 1.635667 1.844368
LeftShoulder -32.487743 2.177926 39.100539
LeftArm 136.040266 -62.881984 -129.957647
LeftForeArm 40.501291 -0.000000 53.988632
LeftHand -35.042202 0.000000 120.032374
LeftHandThumb1 -26.253704 0.000000 33.147579
RightShoulder -30.029471 29.579192 -59.202547
RightArm 204.445974 108.313117 211.551108
RightForeArm -52.351627 -0.000000 78.736090
RightHand -15.835364 0.000000 -65.186120
RightHandThumb1 -24.326973 -0.000000 -32.862282
LeftUpLeg 36.094008 6.915849 25.120050
LeftLeg 58.939584 -0.000000 -0.000000
LeftFoot -2.557496 8.000070 -38.650379
LeftToeBase -3.921643 -0.000000 0.000000
RightUpLeg 36.466175 2.448987 -24.554592
RightLeg 84.216936 -0.000000 -0.000000
RightFoot -26.539715 -18.870217 8.037573
RightToeBase -3.423682 -0.000000 0.000000
1301
root 1.359957 26.632015 -0.258616 -15.679692 79.955588 73.128001
Spine -50.851296 5.449809 1.960609
Head -108.696817 1.291144 1.501597
LeftShoulder -32.278682 2.260969 38.797104
LeftArm 136.646588 -63.009102 -130.512881
LeftForeArm 40.233997 -0.000000 53.720954
LeftHand -34.781877 -0.000000 120.242877
LeftHandThumb1 -26.253704 0.000000 33.147579
RightShoulder -30.230798 29.309003 -59.654035
RightArm 203.913143 108.373273 211.269990
RightForeArm -52.357668 -0.000000 78.973388
RightHand -16.094013 0.000000 -64.825840
RightHandThumb1 -24.326973 -0.000000 -32.862282
LeftUpLeg 36.031951 6.874079 25.054436
LeftLeg 59.138836 -0.000000 -0.000000
LeftFoot -2.631880 7.734299 -37.938666
LeftToeBase -4.957419 -0.000000 0.000000
RightUpLeg 36.452747 2.345341 -24.661982
RightLeg 83.766266 -0.000000 -0.000000
RightFoot -26.705941 -19.104398 8.203723
RightToeBase -3.117843 -0.000000 0.000000
1302
root 1.268438 26.650059 -0.265734 -15.456436 79.911325 73.346268
Spine -50.925510 5.701290 2.061101
Head -108.881904 1.073263 1.040487
LeftShoulder -32.182409 1.889828 38.466337
LeftArm 136.800424 -63.227725 -130.354869
LeftForeArm 40.130985 -0.000000 53.463912
LeftHand -34.673646 -0.000000 120.289470
LeftHandThumb1 -26.253704 0.000000 33.147579
RightShoulder -30.523904 29.135151 -60.107822
RightArm 204.003681 108.355535 211.643817
RightForeArm -52.260045 -0.000000 79.179293
RightHand -16.005147 -0.000000 -64.661346
RightHandThumb1 -24.326973 -0.000000 -32.862282
LeftUpLeg 35.962272 6.835587 25.005974
LeftLeg 59.461578 -0.000000 -0.000000
LeftFoot -3.031285 7.743570 -37.194006
LeftToeBase -4.768457 -0.000000 0.000000
RightUpLeg 36.436641 2.278355 -24.670715
RightLeg 83.365724 -0.000000 -0.000000
RightFoot -26.821411 -19.382195 8.069201
RightToeBase -2.675816 -0.000000 0.000000
1303
root 1.182398 26.666444 -0.275913 -15.213513 79.845399 73.596356
Spine -50.974387 5.894125 2.185916
Head -109.061289 0.958635 0.877893
LeftShoulder -32.163694 1.771146 38.252170
LeftArm 137.120048 -63.150565 -130.702899
LeftForeArm 40.246039 -0.000000 53.552752
LeftHand -34.932018 -0.000000 119.999763
LeftHandThumb1 -26.253704 0.000000 33.147579
RightShoulder -30.702311 29.105976 -60.369924
RightArm 204.228270 108.316904 211.966881
RightForeArm -52.161007 -0.000000 79.315107
RightHand -16.014241 -0.000000 -64.547152
RightHandThumb1 -24.326973 -0.000000 -32.862282
LeftUpLeg 35.920795 6.792921 24.946799
LeftLeg 59.884510 -0.000000 -0.000000
LeftFoot -3.572581 8.297246 -37.132733
LeftToeBase -4.063335 -0.000000 0.000000
RightUpLeg 36.399517 2.247778 -24.669640
RightLeg 83.019013 -0.000000 -0.000000
RightFoot -26.922733 -19.642006 8.063490
RightToeBase -2.291546 -0.000000 0.000000
1304
root 1.101803 26.682193 -0.293221 -14.615391 79.775051 74.163409
Spine -51.083849 6.112790 2.182067
Head -109.142538 0.841167 0.774519
LeftShoulder -32.152491 1.821436 38.077864
LeftArm 137.486594 -62.907056 -131.232732
LeftForeArm 40.392904 -0.000000 53.690420
LeftHand -35.122747 0.000000 119.544746
LeftHandThumb1 -26.253704 0.000000 33.147579
RightShoulder -30.664996 29.037545 -60.644132
RightArm 203.001521 108.172961 210.938468
RightForeArm -51.823372 -0.000000 79.485057
RightHand -15.777823 -0.000000 -64.390338
RightHandThumb1 -24.326973 -0.000000 -32.862282
LeftUpLeg 35.858789 6.786417 24.796062
LeftLeg 60.412103 -0.000000 -0.000000
LeftFoot -4.353652 9.331778 -37.321383
LeftToeBase -4.434211 -0.000000 0.000000
RightUpLeg 36.325546 2.263617 -24.719029
RightLeg 82.683865 -0.000000 -0.000000
RightFoot -27.064258 -19.800240 8.056068
RightToeBase -1.897183 -0.000000 0.000000
1305
root 1.018869 26.695025 -0.307568 -14.480042 79.693749 74.265426
Spine -51.207355 6.432014 2.265244
Head -109.483103 0.095420 1.087005
LeftShoulder -31.904446 1.499902 37.773474
LeftArm 137.941075 -62.981714 -131.423872
LeftForeArm 40.575594 -0.000000 53.543806
LeftHand -35.330767 -0.000000 119.598846
LeftHandThumb1 -26.253704 0.000000 33.147579
RightShoulder -31.009781 28.774447 -61.014479
RightArm 203.905946 108.192926 212.047232
RightForeArm -51.891087 -0.000000 79.657314
RightHand -15.991259 -0.000000 -64.142725
RightHandThumb1 -24.326973 -0.000000 -32.862282
LeftUpLeg 35.795025 6.796150 24.772980
LeftLeg 61.044510 -0.000000 -0.000000
LeftFoot -5.264037 10.677480 -37.244715
LeftToeBase -4.821247 -0.000000 0.000000
RightUpLeg 36.240209 2.280411 -24.644780
RightLeg 82.330533 -0.000000 -0.000000
RightFoot -27.235846 -19.830543 8.224956
RightToeBase -1.474587 -0.000000 0.000000
1306
root 0.942788 26.708261 -0.322093 -14.243576 79.618567 74.470973
Spine -51.332497 6.685595 2.283662
Head -109.518180 -0.060414 0.885217
LeftShoulder -31.813856 1.415423 37.636154
LeftArm 138.121017 -62.806755 -131.715390
LeftForeArm 40.747744 -0.000000 53.629370
LeftHand -35.548306 -0.000000 119.295383
LeftHandThumb1 -26.253704 0.000000 33.147579
RightShoulder -31.093860 28.625390 -61.209105
RightArm 204.064979 108.050473 212.264667
RightForeArm -51.841583 -0.000000 79.731791
RightHand -15.978014 -0.000000 -64.104221
RightHandThumb1 -24.326973 -0.000000 -32.862282
LeftUpLeg 35.756891 6.830226 24.760914
LeftLeg 61.745851 -0.000000 -0.000000
LeftFoot -6.279420 12.193712 -37.124844
LeftToeBase -5.288556 -0.000000 0.000000
RightUpLeg 36.163191 2.321280 -24.582067
RightLeg 81.981927 -0.000000 -0.000000
RightFoot -27.335115 -19.931588 8.270680
RightToeBase -1.277011 -0.000000 0.000000
1307
root 0.869713 26.721366 -0.341838 -14.126843 79.504642 74.597932
Spine -51.384347 6.891334 2.445801
Head -109.600362 -0.080101 0.685643
LeftShoulder -31.684602 1.658357 37.565218
LeftArm 138.668290 -62.910862 -132.678790
LeftForeArm 40.694782 0.000000 54.024232
LeftHand -35.664170 -0.000000 119.038056
LeftHandThumb1 -26.253704 0.000000 33.147579
RightShoulder -31.104642 28.577851 -61.222851
RightArm 204.860562 107.860831 212.972476
RightForeArm -51.936816 -0.000000 79.789919
RightHand -16.163845 -0.000000 -63.984011
RightHandThumb1 -24.326973 -0.000000 -32.862282
LeftUpLeg 35.793414 6.871824 24.772737
LeftLeg 62.539407 -0.000000 -0.000000
LeftFoot -7.301275 13.751293 -36.776561
LeftToeBase -5.347324 -0.000000 0.000000
RightUpLeg 36.090814 2.429850 -24.484867
RightLeg 81.634145 -0.000000 -0.000000
RightFoot -27.350218 -20.051420 8.167717
RightToeBase -1.292533 -0.000000 0.000000
1308
root 0.799306 26.730951 -0.360422 -14.047635 79.443175 74.686704
Spine -51.376384 7.041565 2.568312
Head -109.791478 -0.045580 0.322197
LeftShoulder -31.849721 1.556898 37.515471
LeftArm 138.576365 -62.589436 -132.845238
LeftForeArm 40.957124 -0.000000 54.191687
LeftHand -35.714933 -0.000000 118.694675
LeftHandThumb1 -26.253704 0.000000 33.147579
RightShoulder -31.308506 28.539236 -61.335581
RightArm 205.788994 107.748698 213.924888
RightForeArm -52.017937 -0.000000 79.880978
RightHand -16.216780 -0.000000 -63.638424
RightHandThumb1 -24.326973 -0.000000 -32.862282
LeftUpLeg 35.809585 6.858593 24.784792
LeftLeg 63.448105 -0.000000 -0.000000
LeftFoot -8.347027 15.144273 -36.686749
LeftToeBase -5.468214 -0.000000 0.000000
RightUpLeg 36.053485 2.512258 -24.378775
RightLeg 81.303876 -0.000000 -0.000000
RightFoot -27.448615 -20.086032 8.197702
RightToeBase -1.123146 -0.000000 0.000000
1309
root 0.732503 26.743846 -0.380605 -13.879995 79.401315 74.858732
Spine -51.413013 7.201760 2.596760
Head -109.817541 -0.132784 0.208355
LeftShoulder -31.891586 1.583203 37.447164
LeftArm 138.677030 -62.449182 -133.154268
LeftForeArm 41.118670 -0.000000 54.387388
LeftHand -35.996866 -0.000000 118.649109
LeftHandThumb1 -26.253704 0.000000 33.147579
RightShoulder -31.412495 28.479364 -61.444522
RightArm 206.186825 107.614496 214.327368
RightForeArm -51.892371 -0.000000 79.949770
RightHand -16.128595 0.000000 -63.393738
RightHandThumb1 -24.326973 -0.000000 -32.862282
LeftUpLeg 35.850559 6.835964 24.784557
LeftLeg 64.404972 -0.000000 -0.000000
LeftFoot -9.434864 16.311779 -36.709126
LeftToeBase -5.444461 -0.000000 0.000000
RightUpLeg 36.024886 2.586649 -24.289472
RightLeg 80.965141 -0.000000 -0.000000
RightFoot -27.508697 -20.133693 8.262381
RightToeBase -0.870875 -0.000000 0.000000
1310
root 0.668304 26.751109 -0.403417 -13.799128 79.353441 74.888996
Spine -51.513494 7.479048 2.643715
Head -109.838595 -0.479617 0.084598
LeftShoulder -31.673096 1.269370 37.181267
LeftArm 138.931965 -62.732445 -133.161933
LeftForeArm 41.010016 -0.000000 54.285545
LeftHand -35.984872 -0.000000 118.674111
LeftHandThumb1 -26.253704 0.000000 33.147579
RightShoulder -31.607020 28.292651 -61.837619
RightArm 206.503629 107.524294 214.897316
RightForeArm -51.981731 0.000000 80.115610
RightHand -16.475618 -0.000000 -63.198309
RightHandThumb1 -24.326973 -0.000000 -32.862282
LeftUpLeg 35.848117 6.852402 24.824867
LeftLeg 65.455703 -0.000000 -0.000000
LeftFoot -10.316882 17.328200 -36.630556
LeftToeBase -5.423637 -0.000000 0.000000
RightUpLeg 35.927932 2.643975 -24.168956
RightLeg 80.656522 -0.000000 -0.000000
RightFoot -27.544712 -20.222402 8.258597
RightToeBase -0.607350 -0.000000 0.000000
1311
root 0.612017 26.760709 -0.426066 -13.640492 79.334019 75.036851
Spine -51.560392 7.629005 2.694553
Head -109.853214 -0.663514 0.032689
LeftShoulder -31.509241 1.356300 37.049073
LeftArm 139.542470 -62.805182 -133.910033
LeftForeArm 40.947459 0.000000 54.455267
LeftHand -36.015355 -0.000000 118.526021
LeftHandThumb1 -26.253704 0.000000 33.147579
RightShoulder -31.675352 28.166236 -62.068470
RightArm 206.846008 107.310570 215.463594
RightForeArm -52.205350 -0.000000 80.231237
RightHand -16.621189 -0.000000 -62.971877
RightHandThumb1 -24.326973 -0.000000 -32.862282
LeftUpLeg 35.895223 6.808045 24.846602
LeftLeg 66.567979 -0.000000 -0.000000
LeftFoot -10.785440 18.023811 -36.317673
LeftToeBase -5.804950 -0.000000 0.000000
RightUpLeg 35.896568 2.695787 -24.094714
RightLeg 80.326337 -0.000000 -0.000000
RightFoot -27.592103 -20.330696 8.261462
RightToeBase -0.462755 -0.000000 0.000000
